<svg width="116" height="22" viewBox="0 0 116 22" fill="none" xmlns="http://www.w3.org/2000/svg">
<path d="M49.0503 15.9047H46.6803V6.1547H49.0503V15.9047ZM53.3603 15.9047H50.9903V3.0447H53.3603V15.9047ZM69.0603 4.1947C69.0579 4.34995 69.0239 4.50308 68.9603 4.6447C68.9046 4.78754 68.8194 4.91702 68.7103 5.0247C68.5982 5.12833 68.4698 5.2128 68.3303 5.2747C68.1845 5.33516 68.0281 5.36576 67.8703 5.3647C67.7093 5.36475 67.5498 5.33421 67.4003 5.2747C67.2652 5.21873 67.1402 5.14104 67.0303 5.0447C66.9244 4.93439 66.8397 4.80559 66.7803 4.6647C66.7198 4.52244 66.6892 4.36928 66.6903 4.2147C66.6885 4.06063 66.7176 3.90777 66.776 3.76519C66.8344 3.62261 66.9209 3.49322 67.0303 3.3847C67.1361 3.27799 67.2618 3.19306 67.4003 3.1347C67.5477 3.06714 67.7082 3.03299 67.8703 3.0347C68.0294 3.03095 68.1871 3.06524 68.3303 3.1347C68.4718 3.19283 68.6009 3.27771 68.7103 3.3847C68.8192 3.48868 68.9044 3.61487 68.9603 3.7547C69.0205 3.89395 69.0544 4.04312 69.0603 4.1947ZM69.0603 15.9047H66.6903V6.1547H69.0603V15.9047ZM76.2603 15.9047C75.7108 15.9069 75.1666 15.798 74.6603 15.5847C73.6686 15.1621 72.8773 14.3745 72.4503 13.3847C72.237 12.8749 72.1282 12.3274 72.1303 11.7747V9.0447H70.9903V6.7047H72.1303V3.0447H74.4803V6.7047H78.0403V9.0447H74.4803V11.7847C74.4771 12.0243 74.5213 12.2622 74.6103 12.4847C74.7042 12.6916 74.8327 12.881 74.9903 13.0447C75.1551 13.2081 75.3483 13.3402 75.5603 13.4347C75.7821 13.5271 76.02 13.5747 76.2603 13.5747H78.0403V15.9147L76.2603 15.9047ZM49.0503 4.1747C49.054 4.33381 49.0197 4.49151 48.9503 4.6347C48.8922 4.77626 48.8073 4.90529 48.7003 5.0147C48.5874 5.11725 48.4592 5.20159 48.3203 5.2647C48.1748 5.32624 48.0182 5.35689 47.8603 5.3547C47.7025 5.35576 47.5461 5.32516 47.4003 5.2647C47.2645 5.20841 47.1367 5.13444 47.0203 5.0447C46.92 4.93003 46.8359 4.80218 46.7703 4.6647C46.7087 4.51926 46.6781 4.36261 46.6803 4.2047C46.6792 4.05012 46.7098 3.89697 46.7703 3.7547C46.8311 3.61757 46.9158 3.4923 47.0203 3.3847C47.1293 3.2747 47.2583 3.18646 47.4003 3.1247C47.5468 3.06766 47.7032 3.04046 47.8603 3.0447C48.0182 3.04251 48.1748 3.07316 48.3203 3.1347C48.4636 3.19411 48.593 3.28265 48.7003 3.3947C48.8104 3.49761 48.8959 3.6241 48.9503 3.7647C49.0124 3.8927 49.0465 4.03248 49.0503 4.1747ZM103.49 9.0447C103.266 8.46823 102.926 7.94403 102.49 7.5047C102.067 7.06841 101.556 6.72748 100.99 6.5047C100.409 6.27086 99.7872 6.152 99.1603 6.1547C98.8636 6.15615 98.5682 6.19307 98.2803 6.2647C97.9837 6.33803 97.6955 6.44192 97.4203 6.5747C97.1473 6.70479 96.8862 6.85872 96.6403 7.0347C96.3944 7.20867 96.1605 7.39911 95.9403 7.6047L95.0003 6.4947H94.4303V19.2647H96.8003V15.0947L97.3503 15.4047C97.5503 15.5047 97.7403 15.5847 97.9403 15.6647C98.1373 15.7443 98.3416 15.8046 98.5503 15.8447C98.75 15.8926 98.9549 15.9161 99.1603 15.9147C99.7856 15.9201 100.406 15.8082 100.99 15.5847C101.554 15.3595 102.065 15.0189 102.49 14.5847C102.924 14.1438 103.264 13.62 103.49 13.0447C103.74 12.4078 103.866 11.7289 103.86 11.0447C103.872 10.36 103.746 9.67984 103.49 9.0447ZM101.3 12.2447C101.184 12.5392 101.011 12.8077 100.79 13.0347C100.581 13.2532 100.329 13.4267 100.05 13.5447C99.7585 13.6648 99.4458 13.726 99.1303 13.7247C98.8179 13.7268 98.5083 13.6656 98.2203 13.5447C97.9416 13.4267 97.6898 13.2532 97.4803 13.0347C97.2596 12.8077 97.0863 12.5392 96.9703 12.2447C96.8502 11.925 96.7892 11.5862 96.7903 11.2447C96.7847 10.8866 96.8457 10.5305 96.9703 10.1947C97.084 9.90196 97.2577 9.63626 97.4803 9.4147C97.6874 9.19593 97.94 9.02525 98.2203 8.9147C98.5083 8.79379 98.8179 8.73255 99.1303 8.7347C99.4458 8.73338 99.7585 8.79456 100.05 8.9147C100.331 9.02525 100.583 9.19593 100.79 9.4147C101.013 9.63626 101.187 9.90196 101.3 10.1947C101.425 10.5305 101.486 10.8866 101.48 11.2447C101.48 11.5828 101.419 11.9182 101.3 12.2347V12.2447ZM114.86 9.0447C114.636 8.46823 114.296 7.94403 113.86 7.5047C113.434 7.07274 112.923 6.73245 112.36 6.5047C111.779 6.27086 111.157 6.152 110.53 6.1547C110.23 6.15676 109.932 6.19367 109.64 6.2647C109.347 6.33966 109.063 6.44351 108.79 6.5747C108.517 6.70479 108.256 6.85872 108.01 7.0347C107.762 7.20616 107.528 7.39674 107.31 7.6047L106.37 6.4947H105.8V19.2647H108.17V15.0947L108.72 15.4047C108.92 15.5047 109.11 15.5847 109.31 15.6647C109.504 15.7429 109.705 15.8032 109.91 15.8447C110.114 15.8921 110.322 15.9156 110.53 15.9147C111.156 15.9201 111.776 15.8082 112.36 15.5847C112.93 15.357 113.446 15.0137 113.876 14.5765C114.307 14.1394 114.642 13.6178 114.86 13.0447C115.106 12.4065 115.231 11.7285 115.23 11.0447C115.237 10.3604 115.112 9.68123 114.86 9.0447ZM112.66 12.2447C112.552 12.5405 112.381 12.8098 112.16 13.0347C111.949 13.2556 111.693 13.4294 111.41 13.5447C110.827 13.7847 110.173 13.7847 109.59 13.5447C109.304 13.4249 109.046 13.2478 108.831 13.0242C108.616 12.8006 108.449 12.5353 108.34 12.2447C108.22 11.925 108.159 11.5862 108.16 11.2447C108.155 10.8866 108.216 10.5305 108.34 10.1947C108.451 9.90256 108.621 9.63683 108.84 9.4147C109.053 9.19783 109.308 9.02756 109.59 8.9147C110.173 8.67467 110.827 8.67467 111.41 8.9147C111.695 9.02213 111.952 9.19313 112.16 9.4147C112.383 9.63423 112.554 9.90072 112.66 10.1947C112.793 10.5285 112.858 10.8855 112.85 11.2447C112.851 11.5839 112.787 11.92 112.66 12.2347V12.2447ZM64.1603 6.5247L63.2403 7.6147C63.0198 7.40943 62.786 7.21901 62.5403 7.0447C62.2974 6.8613 62.0359 6.70378 61.7603 6.5747C61.4879 6.44351 61.2032 6.33966 60.9103 6.2647C60.6189 6.19367 60.3202 6.15676 60.0203 6.1547C59.388 6.1497 58.7615 6.27567 58.1803 6.5247C57.6223 6.76157 57.1135 7.10074 56.6803 7.5247C55.7773 8.47219 55.2818 9.73597 55.3003 11.0447C55.2984 11.7286 55.4239 12.4068 55.6703 13.0447C55.891 13.6123 56.2285 14.1273 56.6609 14.5562C57.0933 14.9851 57.6109 15.3185 58.1803 15.5347C58.7682 15.7565 59.3919 15.8683 60.0203 15.8647H60.6503C60.8708 15.8436 61.0886 15.8001 61.3003 15.7347C61.5007 15.6816 61.6951 15.6079 61.8803 15.5147C62.0383 15.421 62.1746 15.2949 62.2803 15.1447C62.2146 15.3756 62.1275 15.5999 62.0203 15.8147C61.9113 16.0254 61.7657 16.215 61.5903 16.3747C61.4005 16.5449 61.1798 16.6773 60.9403 16.7647C60.637 16.8635 60.3192 16.9108 60.0003 16.9047H58.8403V19.2547H60.0203C60.6457 19.2558 61.2649 19.13 61.8403 18.8847C62.3993 18.6497 62.9084 18.3103 63.3403 17.8847C63.7618 17.4532 64.1007 16.9483 64.3403 16.3947C64.5902 15.8173 64.7162 15.1939 64.7103 14.5647V6.5647L64.1603 6.5247ZM62.0503 12.0447C61.933 12.3392 61.7636 12.6102 61.5503 12.8447C61.3384 13.0776 61.0838 13.2678 60.8003 13.4047C60.5178 13.5455 60.2059 13.6175 59.8903 13.6147C59.5791 13.6145 59.2706 13.5569 58.9803 13.4447C58.7024 13.3296 58.4507 13.1596 58.2403 12.9447C58.026 12.7166 57.8594 12.448 57.7503 12.1547C57.6307 11.8349 57.5697 11.4961 57.5703 11.1547C57.5598 10.7767 57.6209 10.4 57.7503 10.0447C57.8568 9.75013 58.0237 9.48105 58.2403 9.2547C58.4511 9.04528 58.7031 8.88184 58.9803 8.7747C59.2712 8.66596 59.5797 8.61172 59.8903 8.6147C60.2059 8.61191 60.5178 8.68387 60.8003 8.8247C61.0859 8.95823 61.3411 9.14881 61.5503 9.3847C61.7636 9.61918 61.933 9.89018 62.0503 10.1847C62.1727 10.4797 62.2372 10.7954 62.2403 11.1147C62.236 11.4339 62.1715 11.7494 62.0503 12.0447Z" fill="#191718"/>
<path d="M43.8803 5.31462L42.2403 6.94462C41.7865 6.42495 41.2271 6.00808 40.5994 5.72182C39.9717 5.43556 39.2902 5.28651 38.6003 5.28462C38.0447 5.27519 37.4929 5.37743 36.9775 5.58528C36.4622 5.79313 35.9939 6.10236 35.6003 6.49462C35.209 6.87276 34.899 7.32676 34.6892 7.82884C34.4795 8.33091 34.3743 8.87051 34.3803 9.41462C34.3697 9.97578 34.4772 10.5329 34.696 11.0498C34.9148 11.5666 35.24 12.0317 35.6503 12.4146C36.0629 12.819 36.5527 13.1362 37.0904 13.3475C37.6281 13.5588 38.2028 13.6598 38.7803 13.6446C39.4812 13.6619 40.1732 13.4854 40.7803 13.1346C41.3752 12.7498 41.8418 12.1962 42.1203 11.5446H38.5703V9.36462H44.7403V9.87462C44.74 10.9515 44.4498 12.0085 43.9003 12.9346C43.3928 13.85 42.6462 14.6104 41.7403 15.1346C40.7898 15.6603 39.7161 15.9227 38.6303 15.8946C37.4466 15.9025 36.2802 15.61 35.2403 15.0446C34.2412 14.4958 33.4191 13.6737 32.8703 12.6746C32.2934 11.6673 31.9933 10.5254 32.0003 9.36462C31.9853 7.8052 32.5604 6.29776 33.6103 5.14462C34.2332 4.43988 35.0049 3.88231 35.8696 3.51222C36.7343 3.14213 37.6704 2.96875 38.6103 3.00462C39.6397 2.99823 40.6599 3.19887 41.6103 3.59462C42.4786 4.00335 43.2519 4.58923 43.8803 5.31462Z" fill="#191718"/>
<path d="M87.5203 3.04468H84.9503L79.9503 15.9247H82.5903L83.5003 13.6247H88.9403L89.8103 15.9247H92.4503L87.5203 3.04468ZM84.4603 11.1547L86.2403 6.55468L88.0203 11.1347L84.4603 11.1547Z" fill="#191718"/>
<path d="M20.9712 0H1.02885C0.46063 0 0 0.46063 0 1.02885V20.9712C0 21.5394 0.46063 22 1.02885 22H20.9712C21.5394 22 22 21.5394 22 20.9712V1.02885C22 0.46063 21.5394 0 20.9712 0Z" fill="#191718"/>
<path d="M16.4327 13.615C16.4067 14.3752 16.2233 15.1217 15.8942 15.8073C15.5706 16.4667 15.1271 17.0601 14.5865 17.5573C14.0312 18.0695 13.3767 18.4622 12.6634 18.7112C11.9304 18.8661 11.1771 18.9018 10.4327 18.8169L8.99997 18.74L9.10574 16.1343L10.5192 16.2112C10.905 16.2388 11.2927 16.1964 11.6634 16.0862C11.9601 15.9932 12.2371 15.8465 12.4807 15.6535C12.6992 15.4645 12.8845 15.2402 13.0288 14.99C13.1695 14.7323 13.2854 14.4619 13.375 14.1823C13.2482 14.3647 13.0758 14.5106 12.875 14.6054C12.6555 14.7068 12.4269 14.7873 12.1923 14.8458C11.9294 14.9037 11.6627 14.9423 11.3942 14.9612C11.1348 14.9754 10.8748 14.9754 10.6154 14.9612C9.85635 14.9354 9.10915 14.7657 8.41343 14.4612C7.74123 14.1652 7.13778 13.7329 6.64125 13.1917C6.14472 12.6505 5.76592 12.0121 5.52882 11.3169C5.25169 10.5141 5.1341 9.66487 5.18266 8.81694C5.21297 8.01313 5.39911 7.22286 5.73074 6.49002C6.04568 5.80296 6.48961 5.18275 7.03843 4.6631C7.59615 4.14951 8.24963 3.75089 8.96151 3.49002C9.67995 3.2213 10.4452 3.1003 11.2115 3.13425C11.5458 3.17054 11.8748 3.24473 12.1923 3.35541C12.5477 3.46395 12.8922 3.6056 13.2211 3.77848C13.5566 3.95202 13.8781 4.15134 14.1827 4.37464C14.4707 4.60368 14.7437 4.85099 15 5.11502L16.173 3.83618H16.8654L16.4327 13.615ZM13.7307 9.22079C13.7458 8.84444 13.687 8.46878 13.5577 8.11502C13.4249 7.76235 13.2295 7.43659 12.9807 7.15348C12.7344 6.86281 12.4381 6.61857 12.1057 6.43233C11.7678 6.25081 11.3929 6.14886 11.0096 6.13425C10.6374 6.08592 10.2595 6.10547 9.8942 6.19194C9.5369 6.3008 9.2084 6.48805 8.93266 6.74002C8.65281 7.01177 8.43331 7.33938 8.28843 7.70156C8.13651 8.11085 8.05838 8.54383 8.05766 8.98041C8.03583 9.40985 8.09119 9.83974 8.22113 10.2496C8.34581 10.604 8.53852 10.9307 8.78843 11.2112C9.03059 11.4861 9.32899 11.7058 9.66343 11.8554C10.0057 12.0202 10.3797 12.1088 10.7596 12.115C11.1384 12.1546 11.5211 12.1019 11.875 11.9612C12.2325 11.8119 12.5587 11.5966 12.8365 11.3266C13.112 11.0492 13.3337 10.7232 13.4904 10.365C13.6478 10.004 13.7296 9.61461 13.7307 9.22079Z" fill="white"/>
</svg>
